<svg width="66" height="66" viewBox="0 0 66 66" fill="none" xmlns="http://www.w3.org/2000/svg">
<path fill-rule="evenodd" clip-rule="evenodd" d="M11 33C11.0004 28.7662 12.2224 24.6225 14.5194 21.0661C16.8164 17.5096 20.0908 14.6914 23.9498 12.9498C27.8087 11.2081 32.0882 10.6169 36.2748 11.2472C40.4614 11.8774 44.3772 13.7022 47.5524 16.5027C50.7276 19.3032 53.0273 22.9605 54.1755 27.0355C55.3237 31.1106 55.2717 35.4305 54.0257 39.4767C52.7797 43.523 50.3926 47.1238 47.1509 49.847C43.9092 52.5703 39.9506 54.3003 35.75 54.8295V38.5H41.25C41.9793 38.5 42.6788 38.2103 43.1945 37.6945C43.7103 37.1788 44 36.4793 44 35.75C44 35.0207 43.7103 34.3212 43.1945 33.8055C42.6788 33.2897 41.9793 33 41.25 33H35.75V27.5C35.75 26.7707 36.0397 26.0712 36.5555 25.5555C37.0712 25.0397 37.7707 24.75 38.5 24.75H39.875C40.6043 24.75 41.3038 24.4603 41.8195 23.9445C42.3353 23.4288 42.625 22.7293 42.625 22C42.625 21.2707 42.3353 20.5712 41.8195 20.0555C41.3038 19.5397 40.6043 19.25 39.875 19.25H38.5C36.312 19.25 34.2135 20.1192 32.6664 21.6664C31.1192 23.2135 30.25 25.312 30.25 27.5V33H24.75C24.0207 33 23.3212 33.2897 22.8055 33.8055C22.2897 34.3212 22 35.0207 22 35.75C22 36.4793 22.2897 37.1788 22.8055 37.6945C23.3212 38.2103 24.0207 38.5 24.75 38.5H30.25V54.8295C24.9332 54.1596 20.0437 51.5722 16.4993 47.5529C12.955 43.5336 10.9995 38.3588 11 33ZM33 60.5C48.1882 60.5 60.5 48.1882 60.5 33C60.5 17.8118 48.1882 5.5 33 5.5C17.8118 5.5 5.5 17.8118 5.5 33C5.5 48.1882 17.8118 60.5 33 60.5Z" fill="black"/>
</svg>
