<svg width="66" height="66" viewBox="0 0 66 66" fill="none" xmlns="http://www.w3.org/2000/svg">
<path d="M21.45 5.5H44.55C53.35 5.5 60.5 12.65 60.5 21.45V44.55C60.5 48.7802 58.8196 52.8371 55.8284 55.8284C52.8371 58.8196 48.7802 60.5 44.55 60.5H21.45C12.65 60.5 5.5 53.35 5.5 44.55V21.45C5.5 17.2198 7.18044 13.1629 10.1716 10.1716C13.1629 7.18044 17.2198 5.5 21.45 5.5ZM20.9 11C18.2744 11 15.7563 12.043 13.8996 13.8996C12.043 15.7563 11 18.2744 11 20.9V45.1C11 50.5725 15.4275 55 20.9 55H45.1C47.7256 55 50.2437 53.957 52.1004 52.1004C53.957 50.2437 55 47.7256 55 45.1V20.9C55 15.4275 50.5725 11 45.1 11H20.9ZM47.4375 15.125C48.3492 15.125 49.2235 15.4872 49.8682 16.1318C50.5128 16.7765 50.875 17.6508 50.875 18.5625C50.875 19.4742 50.5128 20.3485 49.8682 20.9932C49.2235 21.6378 48.3492 22 47.4375 22C46.5258 22 45.6515 21.6378 45.0068 20.9932C44.3622 20.3485 44 19.4742 44 18.5625C44 17.6508 44.3622 16.7765 45.0068 16.1318C45.6515 15.4872 46.5258 15.125 47.4375 15.125ZM33 19.25C36.6467 19.25 40.1441 20.6987 42.7227 23.2773C45.3013 25.8559 46.75 29.3533 46.75 33C46.75 36.6467 45.3013 40.1441 42.7227 42.7227C40.1441 45.3013 36.6467 46.75 33 46.75C29.3533 46.75 25.8559 45.3013 23.2773 42.7227C20.6987 40.1441 19.25 36.6467 19.25 33C19.25 29.3533 20.6987 25.8559 23.2773 23.2773C25.8559 20.6987 29.3533 19.25 33 19.25ZM33 24.75C30.812 24.75 28.7135 25.6192 27.1664 27.1664C25.6192 28.7135 24.75 30.812 24.75 33C24.75 35.188 25.6192 37.2865 27.1664 38.8336C28.7135 40.3808 30.812 41.25 33 41.25C35.188 41.25 37.2865 40.3808 38.8336 38.8336C40.3808 37.2865 41.25 35.188 41.25 33C41.25 30.812 40.3808 28.7135 38.8336 27.1664C37.2865 25.6192 35.188 24.75 33 24.75Z" fill="black"/>
</svg>
