<?xml version="1.0" encoding="UTF-8"?>
<svg id="Lag_2" data-name="Lag 2" xmlns="http://www.w3.org/2000/svg" viewBox="0 0 549.87 682.58">
  <defs>
    <style>
      .cls-1 {
        stroke-width: 1.92px;
      }

      .cls-1, .cls-2, .cls-3 {
        fill: none;
        stroke: #000;
        stroke-miterlimit: 10;
      }

      .cls-4 {
        font-family: MyriadPro-Regular, 'Myriad Pro';
        font-size: 72px;
        letter-spacing: 0em;
      }

      .cls-2 {
        stroke-width: 2.28px;
      }

      .cls-3 {
        stroke-width: 2px;
      }
    </style>
  </defs>
  <text class="cls-4" transform="translate(133.01 454.74) rotate(-31.41)"><tspan x="0" y="0">T</tspan></text>
  <text class="cls-4" transform="translate(157.54 437.43) rotate(-18.34)"><tspan x="0" y="0">A</tspan></text>
  <path class="cls-1" d="M126.48,501.95c4.79-38.07,44.61-67.78,93.02-67.78s88.23,29.71,93.02,67.78"/>
  <path class="cls-1" d="M309.34,530.65c-11.26,31.49-47.22,54.52-89.84,54.52-39.32,0-72.97-19.6-86.79-47.36"/>
  <path class="cls-3" d="M397,540.17c-10-5-13.83-5.14-28-11-10.1-4.17-7.98-4.54-30-16-15.89-8.27-10.32-4.61-31-15-4.5-2.26-12.15-6.14-23-9-6.18-1.63-14.26-3.75-16-1-1.63,2.58,3.1,8.23,8,14,3.24,3.81,9.41,10.57,27,24,7.11,5.43,11.23,8.24,16,11,7.98,4.62,12.07,6.92,17,7,8.61.13,10.06-5.59,18-5,3.85.29,4.94,1.74,16,8,4.08,2.31,7.72,4.21,15,8,16.13,8.4,15.21,6.5,25,12,10.14,5.7,13.14,8.89,20,9,1.03.02,9.41.07,11-4,1.62-4.14-3.82-8.94-5-10-6.45-5.81-11.72-9.02-21-13-8.66-3.71-8.46-3.73-19-9Z"/>
  <path class="cls-3" d="M172,486.17c-7.96,2.68-14.5,4.68-19,6-7.08,2.08-13.98,4.71-21,7-6.44,2.1-10.51,3.38-12,7-1.29,3.15.57,5.14-1,8-1.77,3.24-5.89,3.98-11,5s-11.96,3.49-18,5c-4,1-16.11,6.51-39,12-25,6-19.04,4.86-27,7-5.29,1.42-12.26,3.18-18,8-1.88,1.58-4.93,4.1-5,8-.06,3.36,2.09,6.72,5,8,3.39,1.5,7.05-.15,9-1,7.74-3.36,16.32-4.52,24-8,6.38-2.89,16.25-5.93,36-12,24.57-7.56,23.31-6.72,29-9,5-2,8.05-5.51,14-5,2.49.21,3.06.91,11,3,4.57,1.2,6.85,1.8,9,2,5.45.5,9.72-.89,13-2,8.55-2.89,20.14-6.87,34-12"/>
  <line class="cls-3" x1="175.58" y1="497.71" x2="139.9" y2="509.54"/>
  <line class="cls-3" x1="180.62" y1="511.1" x2="144.94" y2="522.93"/>
  <text class="cls-4" transform="translate(199.17 423.95)"><tspan x="0" y="0">S</tspan></text>
  <text/>
  <text class="cls-4" transform="translate(227.18 423.39) rotate(19.08)"><tspan x="0" y="0">T</tspan></text>
  <text/>
  <text class="cls-4" transform="translate(260.83 431.79) rotate(28.74)"><tspan x="0" y="0">Y</tspan></text>
  <text class="cls-4" transform="translate(122.25 618.87) rotate(25.79)"><tspan x="0" y="0">T</tspan></text>
  <text class="cls-4" transform="translate(155.77 636.04) rotate(15.52)"><tspan x="0" y="0">A</tspan></text>
  <text/>
  <text class="cls-4" transform="translate(202.43 648.21)"><tspan x="0" y="0">B</tspan></text>
  <text class="cls-4" transform="translate(249.84 645.45) rotate(-13.05)"><tspan x="0" y="0">L</tspan></text>
  <text class="cls-4" transform="translate(285.28 636.16) rotate(-24.46)"><tspan x="0" y="0">E</tspan></text>
  <path class="cls-2" d="M57.63,531.23c-1.07-7.05-1.63-14.25-1.63-21.57,0-3.87.15-7.7.46-11.5"/>
  <path class="cls-2" d="M377.28,553.02c-20.09,63.11-82.9,109.15-157.28,109.15s-138.4-46.93-157.85-110.97"/>
  <path class="cls-2" d="M56.46,498.17c6.32-78.85,77.13-141,163.54-141s164,68.28,164,152.5c0,8.3-.71,16.45-2.09,24.39"/>
</svg>